HIERARCHY
ROOT Pelvis
{
	OFFSET 0.000000 0.000000 0.000000
	CHANNELS 6 Xposition Yposition Zposition Zrotation Yrotation Xrotation 
	JOINT Left_hip
	{
		OFFSET 0.069463 -0.088608 -0.009542
		CHANNELS 3 Zrotation Yrotation Xrotation
		JOINT Left_knee
		{
			OFFSET 0.030639 -0.359740 -0.005288
			CHANNELS 3 Zrotation Yrotation Xrotation
			JOINT Left_ankle
			{
				OFFSET -0.011068 -0.376034 -0.042462
				CHANNELS 3 Zrotation Yrotation Xrotation
				JOINT Left_foot
				{
					OFFSET 0.023192 -0.053321 0.111332
					CHANNELS 3 Zrotation Yrotation Xrotation
					End Site
					{
						OFFSET 0.000000 0.000000 0.000000
					}
				}
			}
		}
	}
	JOINT Right_hip
	{
		OFFSET -0.067438 -0.088025 -0.006263
		CHANNELS 3 Zrotation Yrotation Xrotation
		JOINT Right_knee
		{
			OFFSET -0.035962 -0.366229 -0.008063
			CHANNELS 3 Zrotation Yrotation Xrotation
			JOINT Right_ankle
			{
				OFFSET 0.013608 -0.375719 -0.040481
				CHANNELS 3 Zrotation Yrotation Xrotation
				JOINT Right_foot
				{
					OFFSET -0.021034 -0.045527 0.114617
					CHANNELS 3 Zrotation Yrotation Xrotation
					End Site
					{
						OFFSET 0.000000 0.000000 0.000000
					}
				}
			}
		}
	}
	JOINT Spine1
	{
		OFFSET -0.002610 0.101823 -0.019986
		CHANNELS 3 Zrotation Yrotation Xrotation
		JOINT Spine2
		{
			OFFSET 0.004114 0.128714 -0.000938
			CHANNELS 3 Zrotation Yrotation Xrotation
			JOINT Spine3
			{
				OFFSET 0.002191 0.048470 0.027684
				CHANNELS 3 Zrotation Yrotation Xrotation
				JOINT Neck
				{
					OFFSET -0.002856 0.198873 -0.044022
					CHANNELS 3 Zrotation Yrotation Xrotation
					JOINT Head
					{
						OFFSET 0.002981 0.062960 0.049860
						CHANNELS 3 Zrotation Yrotation Xrotation
						End Site
						{
							OFFSET 0.000000 0.000000 0.000000
						}
					}
				}
				JOINT Left_collar
				{
					OFFSET 0.073708 0.112550 -0.033440
					CHANNELS 3 Zrotation Yrotation Xrotation
					JOINT Left_shoulder
					{
						OFFSET 0.083291 0.030786 -0.008013
						CHANNELS 3 Zrotation Yrotation Xrotation
						JOINT Left_elbow
						{
							OFFSET 0.245601 -0.011792 -0.027873
							CHANNELS 3 Zrotation Yrotation Xrotation
							JOINT Left_wrist
							{
								OFFSET 0.232258 0.008622 -0.000487
								CHANNELS 3 Zrotation Yrotation Xrotation
								JOINT Left_palm
								{
									OFFSET 0.077300 -0.009457 -0.012851
									CHANNELS 3 Zrotation Yrotation Xrotation
									End Site
									{
										OFFSET 0.000000 0.000000 0.000000
									}
								}
							}
						}
					}
				}
				JOINT Right_collar
				{
					OFFSET -0.075339 0.110574 -0.037874
					CHANNELS 3 Zrotation Yrotation Xrotation
					JOINT Right_shoulder
					{
						OFFSET -0.086522 0.031207 -0.009986
						CHANNELS 3 Zrotation Yrotation Xrotation
						JOINT Right_elbow
						{
							OFFSET -0.237313 -0.011478 -0.019859
							CHANNELS 3 Zrotation Yrotation Xrotation
							JOINT Right_wrist
							{
								OFFSET -0.237599 0.007976 -0.003742
								CHANNELS 3 Zrotation Yrotation Xrotation
								JOINT Right_palm
								{
									OFFSET -0.076920 -0.006943 -0.009920
									CHANNELS 3 Zrotation Yrotation Xrotation
									End Site
									{
										OFFSET 0.000000 0.000000 0.000000
									}
								}
							}
						}
					}
				}
			}
		}
	}
}
MOTION
Frames: 6
Frame Time: 0.100000
0.028281 0.456555 -0.745322 177.812593 17.127170 -92.530890 17.018999 -4.693640 -76.015233 -3.972567 19.463236 136.104703 -3.013505 -1.386786 32.515704 -19.205913 4.861483 -15.880728 -8.185590 6.558991 -74.346042 -2.108248 -15.649478 139.134855 -2.244954 19.728752 36.439041 35.271278 -19.108790 -10.314676 -1.346655 1.979132 79.386670 4.690015 -2.382180 14.036953 3.505616 0.785962 -11.115671 -8.058859 -14.741918 11.975610 19.011115 -5.096474 -19.063863 -26.126621 -45.941411 12.740049 -12.102029 -16.387667 14.447590 2.418650 -50.849350 -17.865429 -37.353692 -18.279182 -20.171697 -5.974255 4.039379 -18.367890 22.077912 51.472396 14.969666 20.526174 21.426563 5.487331 -6.515392 48.545763 -24.376685 41.265106 17.912528 -51.182482 -3.968822 2.527748 2.117217 
0.029594 0.456744 -0.744128 178.106343 17.187850 -92.643072 16.966638 -4.649176 -75.677095 -4.076001 19.460150 136.160115 -3.241679 -1.147311 32.327813 -18.803913 5.028850 -15.983734 -8.149187 6.465590 -74.262883 -2.072934 -15.725319 139.270688 -2.522644 19.062005 35.783300 34.455477 -18.372435 -9.838670 -1.428572 1.822025 79.425312 4.561660 -2.384147 14.382535 3.343199 0.659748 -11.036285 -8.362720 -15.718821 10.556680 18.859641 -6.512205 -19.518554 -26.468227 -45.645704 12.770158 -11.347588 -16.116198 14.296370 2.263411 -51.493720 -18.099256 -37.427295 -18.536642 -20.496060 -5.758013 4.108161 -17.940003 22.662718 51.528342 14.980335 19.651213 21.255412 5.515593 -5.721791 49.324440 -23.886978 41.089285 17.813196 -50.667302 -3.950081 2.513005 2.263013 
0.030725 0.462597 -0.744789 177.601266 16.967625 -92.539562 15.167441 -4.201013 -75.498929 -4.994959 18.616555 136.858753 -0.767304 -1.870194 30.091973 -21.212546 5.527290 -16.302186 -7.946018 5.981103 -74.696599 -2.219716 -15.777879 139.829545 -3.537255 20.266742 34.588075 36.712722 -19.717905 -10.305843 -1.046851 0.896415 79.349513 4.440045 -2.275374 13.414351 3.228106 0.588230 -10.646378 -9.418703 -16.642566 11.181911 18.060635 -6.556707 -19.675929 -26.463945 -45.314156 12.879906 -11.857412 -16.172922 14.169530 1.530153 -51.617108 -16.537407 -37.139174 -18.349595 -20.492363 -6.009723 4.611947 -17.252992 22.224900 51.329036 14.812668 20.337013 21.087474 5.660119 -5.167885 49.869768 -23.469104 40.073200 17.788095 -51.383730 -3.597285 2.683577 2.634168 
0.030901 0.462455 -0.744884 177.851681 16.936391 -92.194354 15.161464 -4.081017 -75.664255 -5.092465 18.608347 136.893664 -0.866566 -1.950219 30.150464 -21.190127 5.491174 -16.445841 -8.000842 5.887719 -74.989021 -2.265353 -15.756946 139.953100 -3.659027 20.293672 34.203720 36.613910 -19.788146 -10.297964 -1.059138 0.798873 79.499812 4.388444 -2.256617 13.181743 3.184997 0.574750 -10.616452 -9.736692 -16.661349 11.522848 17.920339 -6.704192 -19.348534 -26.415305 -45.168002 12.878064 -11.830988 -16.080827 14.183981 1.474402 -51.970012 -16.445389 -37.044312 -18.483143 -20.600018 -6.014029 4.641049 -17.140368 22.201763 51.214103 14.829489 20.378165 20.989648 5.737157 -5.259823 50.481818 -23.335649 39.716524 17.727892 -51.229722 -3.545016 2.726155 2.669347 
0.031186 0.462447 -0.744439 178.002238 16.808373 -91.866778 15.021585 -3.864826 -75.893636 -5.294383 18.438973 137.057141 -0.585381 -2.093492 29.769876 -21.529051 5.398741 -16.561768 -8.086799 5.715911 -75.448259 -2.429010 -15.776549 140.185638 -3.941163 20.658306 33.525539 37.110161 -20.377048 -10.461780 -0.970312 0.648861 79.740267 4.306076 -2.119223 12.614294 3.150587 0.629380 -10.614677 -10.324087 -17.105286 12.408004 17.927934 -6.878482 -19.215022 -26.491723 -44.921179 12.917713 -11.913960 -16.009648 14.328521 1.418944 -52.580271 -16.249598 -36.640420 -18.484886 -20.663126 -6.158815 4.700865 -17.022420 22.184460 50.990699 14.983852 20.443678 20.540668 5.881848 -5.370042 51.700006 -23.167489 38.853781 17.748561 -51.494121 -3.423639 2.837882 2.695767 
0.031621 0.462518 -0.744047 178.296320 17.055795 -91.429681 15.197053 -3.604589 -76.109713 -5.071425 18.564434 137.031189 -0.848682 -2.030233 29.948744 -21.391806 5.024771 -16.589105 -8.328424 5.757294 -76.016903 -2.394267 -15.648604 140.306181 -3.880594 20.999075 33.400977 37.358025 -20.941936 -10.716134 -1.040230 0.461206 79.971559 4.099870 -2.055336 12.166522 3.048612 0.610882 -10.740371 -11.572824 -17.647255 12.734016 17.709327 -7.109231 -19.723717 -26.552037 -44.754031 13.009496 -11.903516 -15.824860 14.556368 1.420774 -53.018160 -16.234946 -36.394419 -18.788596 -20.711910 -6.161706 4.808513 -16.923688 22.131799 50.923666 15.109877 20.321971 20.262017 6.105891 -5.050104 52.610972 -22.586395 38.204236 17.840827 -51.461862 -3.459257 2.851190 2.689489 
